<mxfile host="app.diagrams.net" modified="2023-05-17T04:29:00.220Z" agent="Mozilla/5.0 (Windows NT 10.0; Win64; x64) AppleWebKit/537.36 (KHTML, like Gecko) Chrome/112.0.0.0 Safari/537.36 Edg/112.0.1722.39" version="21.1.7" etag="h9bdx_se7HYoyQnpPg1V" type="github">
  <diagram name="Page-1" id="zWa_mzNvcrsQvWHFcihj">
    <mxGraphModel>
      <root>
        <mxCell id="0" />
        <mxCell id="1" parent="0" />
      </root>
    </mxGraphModel>
  </diagram>
</mxfile>
